<?xml version="1.0" encoding="UTF-8"?>
<!DOCTYPE svg PUBLIC "-//W3C//DTD SVG 1.1//EN" "http://www.w3.org/Graphics/SVG/1.1/DTD/svg11.dtd">
<!-- Creator: CorelDRAW 2020 (64-Bit) -->
<svg xmlns="http://www.w3.org/2000/svg" xml:space="preserve" width="512px" height="512px" version="1.1" style="shape-rendering:geometricPrecision; text-rendering:geometricPrecision; image-rendering:optimizeQuality; fill-rule:evenodd; clip-rule:evenodd"
viewBox="0 0 512 512"
 xmlns:xlink="http://www.w3.org/1999/xlink"
 xmlns:xodm="http://www.corel.com/coreldraw/odm/2003">
 <defs>
  <style type="text/css">
   <![CDATA[
    .fil0 {fill:#6CBB46}
   ]]>
  </style>
 </defs>
 <g id="Слой_x0020_1">
  <metadata id="CorelCorpID_0Corel-Layer"/>
  <path class="fil0" d="M79.73 312.34c-3.66,-0.5 -1.26,-0.19 -2.2,0.44 4.06,8.57 10.56,4.1 12.06,8.12 0.89,2.4 -0.43,2.35 -0.42,4.25 0.01,3.15 4.39,2.29 4.14,9.32l-5.47 0.43c5.35,11.87 -0.24,9.84 7.8,12.36 3.96,1.25 -2.12,0.68 3.95,1.39 4.34,-1.81 2.69,-3.18 9.06,-1.18 6.57,2.05 2.37,-1.6 6.46,-3.26 0.59,-0.43 0.8,-0.21 0.93,-1.94 0.11,-1.4 -0.32,-2.14 -0.54,-3.61l11.29 -9.34c0.39,-3.33 -0.51,-12.69 -3.7,-6.02 -3.46,7.21 -2.31,2.9 -2.98,4.29l-5.46 1.03c-1.84,0.69 -2.99,2.06 -5,2.84 -3.61,-1.63 -3.85,-5.42 -3.37,-9.87 2.84,-1.82 4.65,-2 7.65,-4.52 5.88,-4.94 1.44,-3.38 1.77,-8.6 5.18,-3.89 10.84,-5.53 11.58,-13.24 -8.57,1.56 -2.25,7.86 -16.09,6.59 0.47,-1.79 1.55,-3.24 1.48,-4.88 -0.16,-4.09 -1.48,-0.86 -2.04,-4.45 -0.57,-3.66 4.2,-4.89 6.52,-6.74 1.49,-1.2 4.61,-5.51 6.19,-7.43 2.27,-2.78 5.23,-3.98 4.67,-8.31 -5.97,-0.38 -5.04,2.55 -9.95,0.61 -2.06,-6.18 2.7,-4.55 6.36,-8.49 2.29,-2.46 5.59,-6.48 7,-9.73 -1.41,-2.89 -3.26,-2.38 -1.28,-5.32 0.72,-1.08 2.87,-3.19 4.12,-4.58 3.96,-4.4 2.89,-8.77 5.58,-12.33 0.12,0.11 0.29,0.14 0.33,0.36l1.4 5.15c0.4,2.37 1.22,3.82 2.1,5.71 2.08,4.48 2.33,5.96 5.46,9.57 -1.89,3.95 -4.63,1.62 2.88,10.11 1.47,1.66 2.92,2.6 4.52,4.11 2.17,2.04 2.93,2.14 4.8,3.75 0.17,3.33 -0.61,4.17 1.32,6.7 2.05,2.7 3.02,1.18 3.09,5.61 -2.73,-0.31 -6.7,-1.86 -8.61,-2.98 -4.87,-2.88 -1.69,-4.55 -5.78,-5.76 -1.7,1.95 -1.47,1.84 -1.34,5.04 5.18,4.05 4.14,1.31 5.4,4.56 1.73,4.43 -0.33,2.84 4.81,5.31 3.61,1.74 2.68,2.12 3.88,6.04 0.88,2.89 2.22,4.66 2.12,8.28 -4.28,-0.35 -4.38,-3.58 -9.4,-4.25 0.33,5.84 0.41,4.33 3.31,7.94 2.04,2.54 2.35,3.99 4.48,6.33 3.31,3.62 9.95,6.07 10.44,11.12 -4.07,0.13 -4.38,-0.71 -7.87,-0.66l0.05 4.78c-8.71,0.34 -7.55,-10.28 -15.04,-10.51 0.25,4.64 2.74,8.2 4.12,11.44 2.53,5.92 2.26,4.64 7.72,7.87 0.1,2.75 -2.31,4.12 3.42,10.45l9.01 6.4c2.39,0.42 0.33,-0.2 2.96,0.75 5.16,-1.3 1.77,-3.76 2.66,-7.12 1.41,-5.39 18.99,-7.27 12.32,-14.68 -2.13,-2.36 -2.07,-0.71 -2.46,-4.85 8.79,-5.21 13.84,-5.32 13.17,-15.28 -5.67,-0.41 -5.64,1.56 -10.39,1.82 -0.32,-4.74 3.9,-7.94 1.16,-10.55 -3.17,-1.9 -4.79,1.55 -11.09,-0.97 -0.39,-5.44 0.83,-6.01 -3,-8.69 -2.28,-1.59 -4.94,-2.81 -5.81,-5.26 5.46,-0.17 8.35,-1.22 13.47,-1.31 9.49,-0.16 6.28,3.45 11.48,3.27 0.08,-3.45 -0.88,-4.09 -0.86,-6.45l0.31 -1.94c0.65,-3.36 7.28,-0.2 12.69,-7.42 -0.94,-3.86 -2.25,-2.17 -3.04,-5.75 1.76,-3.95 5.91,-3.84 8.35,-6.97 1.23,-1.58 1.39,-2.91 2.31,-4.94 1.27,-2.82 2.18,-2.54 3.38,-4.45 2.09,-3.33 -0.49,-4.57 3.43,-9.48 0.46,-0.58 0.6,-0.72 0.99,-1.18 3.18,-3.67 3.66,-5.48 1.21,-11.06 -5.74,-0.32 -5.97,6.65 -8.01,11.37 -3.28,0.12 -4.97,-1.51 -7.79,0.1 -3.65,2.08 -3.17,13.45 -19.3,7.13l0 -7.96c-3.67,-1.48 -5.26,-1.29 -9.72,-1.81 -3.86,-9.93 9.06,-8.48 12.66,-10.85 3.41,-2.24 4.24,-5.77 7.51,-7.46 11.56,-5.96 17.12,-7.39 9.39,-13.32 1.84,-4.28 7.1,-8.21 11.07,-10.17 3.77,-1.88 5.64,-10.48 6.46,-14.52 -3.68,0.33 -4.8,2.83 -6.57,5.1 -0.97,1.23 -1.63,1.88 -2.44,3.24 -1.41,2.36 -0.74,2.32 -2.6,4.05 -4,0.01 -4.04,-0.92 -5.46,-3.74 0.28,-4.89 1.74,-3.45 2.69,-7.32 -2.67,0.7 -2.6,1.89 -3.68,3.73l-14.51 1c-1.34,-2.6 -3.96,-4.79 -0.63,-7.43 2.23,-1.76 5.22,-2.77 6.5,-5.79 -1.55,-3.35 -2.28,-1.43 -4.23,-4.32 1.33,-6.07 4.81,-6.76 9.96,-9.39 2.51,-1.28 9.18,-6.72 7.71,-10.74 -2.34,-0.44 -1.22,-0.11 -2.66,-0.72 0.36,-3.39 1.93,-5.51 5.59,-6.11 -2.88,0.24 -4.69,0.49 -6.85,-1.07 0.27,-5.01 2.92,-4.46 3.69,-7.36 -7.86,0.41 -4.75,-0.41 -5.77,-1.6 -2.67,-1.04 -1.01,-0.26 -1.61,-1.82 1.2,-2.64 6.09,-5.74 8.54,-7.22 3.01,-3.32 -4.56,-0.34 8.24,-9.71 0.83,-0.61 4.43,-3.2 4.95,-3.77 2.54,-2.78 -0.16,-2.88 -1.25,-6.19 2.14,-1.69 4.25,-4.09 5.95,-6.24 2.1,-2.67 4.34,-4.06 4.61,-8.79l-8.82 0.28c0.46,-3.26 3.2,-4.1 5.02,-5.82 3.85,-3.65 15.37,-10.21 14.89,-17.06l-5.5 0.44c0.73,-5.1 4.82,-5.77 5.96,-15.71 0.74,-6.41 1.44,-4.67 2.61,-5.18 0.11,0.17 0.24,0.24 0.28,0.53 0.04,0.29 0.21,0.4 0.26,0.53 1.8,4.19 -0.99,-2.79 0.46,1.08 1.74,4.62 2.53,13.3 4.72,18.18 1.02,2.27 4.18,5.62 5.63,7.32 2.42,2.83 4.96,4.13 5.08,7.6 -3.06,-0.03 -4.88,-1.35 -6.92,-2.56 0.02,7.16 12.39,19.85 18.82,24.68 3.16,2.37 7.08,3.4 8.14,6.76 -2.28,1.33 -6.59,-0.46 -9.42,-0.91 0.45,2.49 0.93,2.85 1.32,4.47 2.84,1.97 3.09,3.93 6.25,7.11 5.82,5.84 7.33,6.63 13.99,11.09 5.26,3.52 5.69,2.61 6.57,6.65 -7.78,-0.24 -6.67,-1.95 -11.37,-2.61 -0.27,6.78 3.46,6.09 4.16,11.93 -6.02,-0.44 -9.64,-2.89 -13.57,-5.97 -1.99,-1.55 -6.96,-6.8 -11.19,-5.16l0.08 5.74c0.15,2.73 2.28,8.92 5.46,10.76 1.66,0.97 10.77,3.65 13.06,4.35 -0.2,1.84 -2.64,5.59 4.89,8.65 3.82,1.55 9.35,1.37 11.01,5 -0.71,1.62 -0.33,1.07 -1.85,2 -2.42,1.49 -5.74,1.04 -8.36,3.75 2.48,4 13.22,2.89 3.24,9.7 -0.09,8.05 4.1,3.55 4.29,10.88 -7.78,0.77 -8.94,-8.91 -17.09,-9.24 0.98,5.04 4.39,6.77 7.14,10.47 4.41,5.93 -2.75,-0.26 6.43,11.5 8.39,10.75 18.24,10.78 18.64,16.02l-4.95 1.37c1.27,5.15 5.06,4.7 5.26,11.14 -11.16,0.88 -10.75,-2.93 -15.7,-3.42 -5.85,7.55 0.53,6.96 0.46,14.84 -6.62,-0.51 -9.69,-5.41 -11.99,-10.79 -1.3,-3.02 -2.62,-4.2 -3.72,-7.8 -0.39,-1.29 -0.87,-3.29 -1.48,-4.36 -4.36,-7.64 -8.58,-0.54 -4.66,6.25 2.06,3.58 2.18,7.82 3.15,11.86 2.89,12.02 10.76,18.46 18.6,27.41 8.26,9.42 5.91,7.65 16.44,14.47 5.31,3.45 8.43,4.06 8.74,6.88 -1.96,1.17 -4.04,0.8 -6.57,1.25 -5.37,0.93 -3.4,1.54 -3.03,4.69 0.79,6.77 -7.02,3.23 -11.33,3.03l0.25 5.93c-5.19,-0.15 -5.14,-5.39 -9.28,-6.28 -1.61,4.21 1.67,5.22 2.32,9.61 -6.43,-1.17 -9.54,-10.05 -13.62,-11.64 0.2,5.51 14.21,30.33 25.17,36.37 6.72,3.7 9.12,3.63 8.36,6.38 -0.93,3.39 -1.17,-0.27 -2.94,3.14 1.24,3.32 4.99,6.31 7.99,8.61 5.29,4.06 0.1,8.55 7.21,10.14 -0.12,-3.68 -1.38,-3.42 -3.34,-5.09 5.07,-5.48 11.41,-2.05 10.5,-12.23 -2.56,-1.95 -4.23,-1.54 -5.19,-5.03 0.16,-0.11 0.44,-0.43 0.52,-0.28l1.96 -1.09c1.68,-1.42 1.19,0.4 1.26,-2.94 -4.85,-3.7 -7.18,1.86 -10.98,-4.14 -1.08,-1.7 -1.08,-1.74 -1.44,-3.97l6.9 -1.81c3.3,-1.19 1.96,-2.6 5.73,-3.66 2.9,-0.81 4.93,-0.51 5.41,-3.16 0.58,-3.22 -2.28,-3.03 -4.74,-4.11 1.9,-8.98 17.67,-10.19 12.1,-18.45 -3.1,0.32 -4.21,3.97 -7.09,6.36 -2.43,2.02 -6.26,3.45 -10.26,3.68 -0.13,-3.81 1.02,-6.32 0.89,-9.63l-6.41 0.8c2.12,-11.34 13.93,-6.96 14.78,-14.9l-7.98 -0.43c0.42,-4.31 0.8,-3.13 7.67,-6.81 4.04,-2.16 6.01,-2.12 9.74,-4.52 0.32,-2.89 0.58,-6.49 -0.75,-8.44 -0.96,-0.71 1.51,-0.94 -1.84,-0.52 -1.76,0.22 -3.77,2.56 -5.3,3.9 -4.46,3.92 -11.36,2.91 -9.39,-1.43l5.49 -5.42c8.04,-5.84 -1.84,-4.89 -3.92,-6.01 1.38,-3.56 13.76,-8.48 15.15,-18l-4.6 1 0.02 -5 -4.68 -0.48c-1.75,-0.34 -0.55,0.16 -1.67,-0.52 2.58,-5.74 14.99,-7.42 14.14,-14.79l-4.42 0.35c0.38,-3.22 2.67,-5.8 4.39,-7.47 1.82,-1.78 6.27,-2.78 6.89,-5.56 1.49,-6.63 -5.48,0.29 -0.99,-8.64 1.36,-2.69 1.77,-7.39 3.8,-9.15 2.42,1.99 2.49,7.53 4.36,11.47 2.31,1.62 2.93,3.05 4.15,5.03 -0.08,0.22 -0.28,0.45 -0.38,0.59l-0.7 1.03c-0.08,0.12 -0.23,0.31 -0.3,0.41 -1.63,2.23 0.21,-2.37 -0.67,0.85 4.6,4.37 -1.11,5.36 12.17,16.55 -1.08,1.83 -1.53,0.7 -2.62,2.86l1.8 1.58c2.33,2.31 0,-1 0.76,1.15 0.33,0.93 -0.05,1.88 1.92,3.37 3.48,2.64 5.08,0.03 5.48,5.72l-5.55 1.43c1.05,2.3 -0.08,0.32 1.3,2.38 0.44,0.66 1.08,1.27 1.33,1.6 1.7,2.19 1.48,1.86 1.95,5.05 -6.69,-0.72 -4.8,-4.73 -11.57,-5.07l-0.2 3.25c3.72,5.86 2.04,4.1 8.88,7.03 -0.92,3.54 -0.91,-0.82 -1.07,3.26 3.4,1.98 8.26,4.45 8.5,9.6 -5.85,-0.29 -1.83,-2.6 -7.17,-2.87 -0.29,6.28 3.99,7.15 4.86,12.02 -6.09,-0.46 -4.32,-2.95 -10.12,-3.66 0.12,5.37 2.49,8.09 4.91,11.19 3.23,4.15 7.03,7.12 7.27,8.63 3.86,1.36 4.91,3.81 7.37,5.07 1.69,0.7 1.38,0.3 2.2,1.78 0.74,1.32 0.37,1.01 0.46,2.78 -2.81,-0.05 -3.18,0.59 -5.41,0.33 -1.42,-0.17 -3.68,-1.38 -4.62,-1.52 -5.73,-0.8 -2.63,2.96 -2.53,6.64 -2.92,0.6 -3.64,0.08 -5.88,-0.86 0.95,3.4 1.52,3.13 4.74,3.02 -1.8,3.56 3.18,2.22 4,7.86 -1.01,-0.05 -2.39,0.02 -3.3,-0.34 -3.41,-1.37 -0.8,0.66 -2.42,-2.2l-5.81 -3.3c-0.21,4.1 1.14,5.21 2.2,8.53 1.48,0.07 6.07,4.96 8.12,6.79 2.69,2.4 7.12,4.23 6.84,8.99l-10.43 0.3c-0.11,2.83 0.63,3.78 1.82,5.02 2,0.55 1,-0.2 2.2,1.16 1.12,1.27 0.73,1.34 1.05,2.9 -2.95,2.04 -3.99,0.55 -8.39,0.72 2,3.17 5.02,1.02 5.58,6.39 0.54,5.1 -2.13,7.42 4.74,7.59 3.42,-8.38 -0.18,-6.6 3.62,-7.81 1.25,0 4.2,-0.09 6.28,-0.35l4.28 -1.66c1.91,-1.3 -0.77,0.16 1.49,-1.03 0.48,-2.18 4.12,-4.37 7.06,-10.39 1.12,-2.3 1.63,-3.52 3,-5.65 1.25,-1.94 2.59,-3.74 2.47,-6.11 -3.86,0.25 -10.66,12.03 -18.41,13.39 0.65,-4.33 2.81,-6.81 4.38,-10.92 -3.45,-0.02 -3.35,1.04 -5.28,1.13 -4.04,0.2 -1.97,-3.89 0.9,-6.22 2.95,-2.41 4.2,-1.58 7,-3.04 0.12,-4.14 -0.65,-2.3 -3.29,-4.08 1.01,-2.59 0.01,-0.17 1.43,-2.28 1.12,-3.02 2.4,-2.64 2.54,-3.15 0.08,-0.25 0.34,-0.19 0.48,-0.32l-1.8 -2.56c-0.32,-1.02 -0.19,-2.05 -0.2,-3.19 -0.17,-0.12 -0.42,-0.23 -0.55,-0.31l-2.5 -1.95c-3.33,-3.15 -2.59,-2.27 -3.03,-4.92 0.18,-0.17 0.77,-0.48 0.88,-0.55l1.34 -0.89c3.36,-3.77 7.65,-3.08 9.19,-7.19 -2.33,-3.06 -1.57,0.38 -3.47,-2.88 0.9,-2.45 0.67,-1.65 2.27,-2.87 2.09,-3.42 4.99,-3.63 7.6,-6.48 -3.01,-1.3 -2.74,1.3 -7.49,0.53 -0.2,-3.77 0.02,-4.08 2.92,-5.21l0.89 -0.35c0.11,-4.99 -0.17,-0.73 -1.3,-5.03 5.15,-5.54 6.15,-2.66 7.3,-6.47 -2.83,-1.59 -2.2,0.54 -5.02,-1.44 0.39,-5.92 4.31,-3.05 11.72,-10.06 -0.45,-4.61 -1.17,1.2 -0.97,-3.56 0.07,-1.64 0.45,-1.39 1.18,-3.04 0.97,-2.19 1.06,-4.83 1.49,-7.27 2,0.85 0.61,-0.07 1.8,1.49 0.15,0.2 0.8,1.71 0.89,2.01 3.06,10.1 1.61,3.11 6.89,10.37l-1.51 0.75c-4.87,3.58 5.7,7.48 7.74,12.91 -0.83,1.51 -1.51,0.68 -2.48,3.43 1.5,1.03 2.68,3.41 5.24,5.2 5.28,1.27 3.56,2.36 4.5,7.08 0.61,3.05 3.12,4.03 2.61,7.58 -3.86,1.19 -5.51,-0.42 -9.17,-0.57l0.37 4.6 4.92 1.8c0.16,-0.21 0.49,0.26 0.71,0.43 0.65,1.28 1.47,1.27 2.52,1.75 -0.14,0.18 -0.38,0.19 -0.47,0.51l-1.75 1.68c-0.82,0.8 -0.88,0.44 -1.37,1.73 2.01,2.07 3.44,1.58 4.21,5.04 -0.92,0.6 -0.24,0.36 -1.8,0.69 -1.17,0.25 -1.63,0.16 -2.78,0.27 -2.71,0.25 -2.43,0.24 -4,1.41 2.3,2.16 4.72,2.32 8.33,3.32l-0.68 6.96c1.78,1.13 5.85,2.84 8.02,3.73 0.31,3.14 -1.28,2.22 1.04,4.65 1.61,1.67 2.65,0.96 1.99,4.37l-7.7 0.21 0.75 6.92c-4.76,0.3 -5.16,-2.48 -5.72,-6.62 -0.59,-4.38 -3.13,-4.72 -7.23,-5.88 0.29,6.36 2.74,3.55 4.5,7.28 -4.23,7.63 -8.59,1.53 10.09,15.06 -0.28,3.38 -2.85,3.9 0.5,6.65 2.55,2.09 4.56,1.25 7.02,3.45 -1.12,2.67 -1.96,1.84 -4.31,3.6 0.8,2.11 0.74,2.19 2.83,3.22 1.08,1.1 2.32,-1.8 0.7,2.16 -7.02,0.45 -4.36,-0.33 -6.73,1.98 -0.08,0.08 -0.26,0.23 -0.34,0.31l-3.21 2.14c-0.15,0.07 -0.42,0.22 -0.55,0.28 -0.13,0.06 -0.4,0.16 -0.57,0.3 1.49,1.74 0.24,4.38 0.32,7.66 3.18,2.22 3.06,4.52 7.89,4.9 3.16,-2.85 -0.25,-1.65 3.43,-2.83 2.21,-1.9 11.56,-23.43 13.25,-27.86 3.89,-10.16 6.87,-20.33 10.07,-31.59 11.83,-41.6 9.75,-105.34 -6.33,-146.45 -6.78,-17.35 -9.72,-26.61 -19.65,-42.81l-7.82 -13.08c-10.11,-15.89 -24.47,-33.27 -37.88,-45.52 -16.06,-14.69 -28.4,-24.75 -47.55,-35.84 -14.13,-8.18 -27.29,-14.49 -42.63,-19.96 -45.45,-16.19 -80.25,-17.5 -128.69,-11.89 -7.49,0.87 -17.93,4.01 -25.31,5.5 -6.35,1.29 -24.65,7.95 -31.17,10.5 -20.12,7.89 -49.04,26.07 -64.96,39.21 -2.14,1.78 -3.43,3.23 -5.66,5.06 -8.96,7.36 -24.34,23.43 -30.64,31.97 -3.99,5.4 -18.28,23.74 -21.59,30.87 -2.69,5.8 -7.21,11.66 -10.95,20.65 -20.43,49.17 -23.91,66.51 -23.61,122.7l2.88 28.04c0.24,3.4 1,6.79 1.51,9.56 2.33,12.73 3.69,19.94 8.94,32.83l15.94 36.51c1.18,2.18 2.89,4.9 3.86,6.95 2.94,-0.65 3.91,-1.12 6.86,-4.56 2.23,-2.61 0.72,-0.24 0.87,-3.06 0.23,-4.53 5.73,-11.53 8.01,-13.94 1.75,-1.86 4.81,-0.97 3.61,-6.4 -0.33,-1.5 -1.03,-2.89 -1.8,-4.01 -5.47,2.13 -4.33,5.96 -8.42,8.81 -3.94,2.73 -6.09,5.57 -9.97,6.73 -0.21,-4.36 1.68,-3.87 1.71,-7.61l-4.11 -1.9c0.39,-4.65 4.23,-6.28 7.92,-8.05 9.36,-4.47 0.78,-5.14 3.41,-9.47 0.92,-1.52 7.68,-4.08 10.09,-5.88 2.68,-2 6.15,-5.74 1.53,-8.28 -1.46,-0.19 -11.66,5.87 -15.1,6.08 -0.85,-1.54 -0.27,-1.28 -1.11,-2.96 -2.19,-4.44 -3.58,-2.95 2.82,-8.07 3.68,-2.94 1.97,-2.39 3.66,-6.27 1.3,-2.99 2.5,-2.35 5.16,-4.39 2.15,-1.64 3.54,-2.57 3.88,-6.26 -3.94,1.16 -4.43,3.25 -8.65,3.6l-2.88 -5.65c3.78,-7.75 12.93,-9.16 18.13,-17.98 -0.99,-2.54 -1.13,-1.46 -2.84,-3.59 1.07,-3.52 2.85,-3.15 6.08,-9.54 2.71,-5.36 -1.16,-12.02 4.1,-11.57 0.91,5.47 0.56,16.25 8.15,22.66 -0.49,2.23 -0.76,1.2 -1.01,2.37 -1.26,6 10.34,11.18 14.15,13.98 -0.04,3.55 -1.89,4.41 0.94,6.97 2.48,2.24 4.48,1.66 4.77,5.22 -3.31,-0.02 -9.88,-1.23 -13.38,-1.06zm329.19 41.12l-1.07 8.98 12.34 -0.01c-0.75,4.85 -5.93,4.13 -7.35,7.86 3.42,2.03 3.81,0.58 6.19,3.6 -0.75,3.4 -3.42,5.4 -6.73,5.77 -1.92,-1.78 -4.31,-7.13 -4.63,-10.09l1.72 -1.37c1.28,-0.92 0.5,0.63 0.83,-0.53 0.06,-0.2 0.29,-0.15 0.41,-0.25 -2.22,-1.68 -3.12,-2.34 -6.24,-2.87 2.01,3.39 1.12,0.53 2.03,6.45 0.39,2.56 0.67,4.69 1.74,6.31 3.32,5.04 5.42,3.21 10.95,2.75 0.42,-5.75 4.16,-7.25 -4.29,-10.44 1.49,0.19 2.55,-0.51 4.16,-1.94 1.7,-1.49 2.89,-2.88 2.08,-6.01 -3.02,-1.56 -7.48,-0.54 -11,-0.68 -0.79,-11.38 8.93,-2.12 10.91,-10.57 -2.26,1.19 0.42,-0.27 -1.49,1.03l-4.28 1.66c-2.08,0.26 -5.03,0.35 -6.28,0.35zm-4.53 11.09c3.12,0.53 4.02,1.19 6.24,2.87 -0.12,0.1 -0.35,0.05 -0.41,0.25 -0.33,1.16 0.45,-0.39 -0.83,0.53l-1.72 1.37c0.32,2.96 2.71,8.31 4.63,10.09 3.31,-0.37 5.98,-2.37 6.73,-5.77 -2.38,-3.02 -2.77,-1.57 -6.19,-3.6 1.42,-3.73 6.6,-3.01 7.35,-7.86l-12.34 0.01 1.07 -8.98c-3.8,1.21 -0.2,-0.57 -3.62,7.81 -6.87,-0.17 -4.2,-2.49 -4.74,-7.59 -0.56,-5.37 -3.58,-3.22 -5.58,-6.39 4.4,-0.17 5.44,1.32 8.39,-0.72 -0.32,-1.56 0.07,-1.63 -1.05,-2.9 -1.2,-1.36 -0.2,-0.61 -2.2,-1.16l0.23 2.88c-4.15,-0.23 -5.8,-1.33 -8.59,1.18 0.68,2.85 2.41,2.73 7.05,5.58l-0.91 1.68c-0.46,1.08 -0.73,-1.09 -0.58,2.05 0.05,1.09 1,2.41 1.76,3.79 2.41,4.38 2.78,2.25 5.31,4.88zm-286.34 102.79c1.87,2.87 10.69,7.45 14.06,9.23 17.52,9.21 26.77,14.06 46.68,20.18 19.44,5.99 16.6,4.95 35.89,8.68 23.76,4.6 58.79,4.74 82.63,0.06 24.36,-4.77 45,-10.06 67.6,-21.5 4.28,-2.16 25.77,-12.06 28.26,-16.65 -0.82,-0.45 0,-0.24 -1.79,-0.6 -0.83,-0.17 -1.2,-0.18 -2.05,-0.22l-133.75 0.02c-22.99,0.05 -46.01,0.08 -69.01,0.02 -3.04,-0.01 -65.18,-0.97 -68.52,0.78zm339.98 -188.66l-2.08 0.78c0.22,4.14 1.22,3.54 3.94,5.08 -0.59,3.47 -1.73,4.07 -0.78,8.05 2.46,1.47 3.15,1.4 7.1,1.58 -0.22,-0.17 -0.55,-0.64 -0.71,-0.43l-4.92 -1.8 -0.37 -4.6c3.66,0.15 5.31,1.76 9.17,0.57 0.51,-3.55 -2,-4.53 -2.61,-7.58 -0.94,-4.72 0.78,-5.81 -4.5,-7.08l2.91 2.53c-0.87,3.77 -2.02,2.77 0.28,6.07 1,1.46 2.82,3.04 3.01,5.17 -4.87,1.5 -6.86,-3.13 -8.48,-5.45l-1.96 -2.89zm-37.8 37.57c7.72,-2.46 10.62,-5.46 11.01,-13.91 -2.11,0.85 -0.62,-0.29 -2.56,1.66 -2.52,2.52 -2.35,5.44 -6.21,5.89 1.07,-4.28 2.65,-1.3 3.08,-6.91 -3.28,0.59 -2.09,0.63 -4.55,1.73 -1.9,-3.6 1.22,-3.22 -3.74,-3.32l0.13 -2.98 -1.34 0.89c-0.11,0.07 -0.7,0.38 -0.88,0.55 0.44,2.65 -0.3,1.77 3.03,4.92l2.5 1.95c0.13,0.08 0.38,0.19 0.55,0.31 0.01,1.14 -0.12,2.17 0.2,3.19l1.8 2.56c-0.14,0.13 -0.4,0.07 -0.48,0.32 -0.14,0.51 -1.42,0.13 -2.54,3.15zm-201.52 -165.22l-0.2 -2.87c5.4,-3.85 18.96,-10.75 11.95,-13.28 -1.1,-0.39 -1.71,-0.27 -2.66,0.18 -2.28,1.06 -1.24,2.35 -2.4,4.55 -1.51,2.86 -5.79,3.53 -9.32,3.41 0.72,-4.74 3.7,-3.02 4.12,-8.38l-7.49 -0.47c1.02,1.19 -2.09,2.01 5.77,1.6 -0.77,2.9 -3.42,2.35 -3.69,7.36 2.16,1.56 3.97,1.31 6.85,1.07 -3.66,0.6 -5.23,2.72 -5.59,6.11 1.44,0.61 0.32,0.28 2.66,0.72zm262.43 230.04c-3.68,1.18 -0.27,-0.02 -3.43,2.83 -4.83,-0.38 -4.71,-2.68 -7.89,-4.9 -0.08,-3.28 1.17,-5.92 -0.32,-7.66 0.17,-0.14 0.44,-0.24 0.57,-0.3 0.13,-0.06 0.4,-0.21 0.55,-0.28l3.21 -2.14c0.08,-0.08 0.26,-0.23 0.34,-0.31 2.37,-2.31 -0.29,-1.53 6.73,-1.98 1.62,-3.96 0.38,-1.06 -0.7,-2.16 -0.08,2.68 -3.74,1.24 -4.8,0.51 -2.86,-1.97 -0.57,-2.56 -5.72,-2.36 0.63,3.69 2.26,2.65 1.68,6.59 -5.16,0.28 -4.9,-6.49 -9.94,-6.24 0.33,8.6 0.74,7.59 7.44,9.31 0.31,5.84 -2.84,5.38 1.8,9.68 2.12,1.97 4.39,4.22 8.35,4.24l2.13 -4.83zm-83.76 -64.89c1.62,2.86 -0.99,0.83 2.42,2.2 0.91,0.36 2.29,0.29 3.3,0.34 -0.82,-5.64 -5.8,-4.3 -4,-7.86 -3.22,0.11 -3.79,0.38 -4.74,-3.02 2.24,0.94 2.96,1.46 5.88,0.86 -0.1,-3.68 -3.2,-7.44 2.53,-6.64 0.94,0.14 3.2,1.35 4.62,1.52 2.23,0.26 2.6,-0.38 5.41,-0.33 -0.09,-1.77 0.28,-1.46 -0.46,-2.78 -0.82,-1.48 -0.51,-1.08 -2.2,-1.78 0.54,1.34 0.63,1.41 0.74,3.22 -8.07,0.89 -7.06,-3.19 -12.78,-1.91 -0.74,4.05 0.11,4.44 0.77,7.9 -9.72,-2.17 -1.43,-14.36 -12.16,-12.86 0.66,5.15 4.75,8.19 6.15,12.04 2.23,6.14 4.66,6.32 8.46,9.94 -1.93,-0.08 -2.43,-0.34 -3.94,-0.84zm-217.96 37.21c-2.63,-0.95 -0.57,-0.33 -2.96,-0.75 -0.1,4.18 -2.01,1.51 -4.58,3.73 -1.23,1.06 -1.71,3.72 -3.04,5.53 -4.54,-0.18 -6,-3.44 -10.68,-2.73 -0.53,3.88 2.57,3.81 4.02,6.77 1.43,2.9 -0.55,5.47 0.84,10.61 3.44,0.05 4.03,-1.66 6.11,-4.29 3.3,-4.17 1.11,-4.37 0.71,-8.44 3.17,-1.16 3.53,-1.82 5.35,-4.24 1.9,-2.54 3.24,-4.03 4.23,-6.19zm-88.46 20.97c-1.69,-4.59 -5.22,-0.73 -4.68,-6.26 0.22,-2.35 0.66,-2.72 2.3,-2.62 3.36,0.2 -0.01,1.82 4.54,1.22 1.69,-6.11 -0.28,-2.92 3.99,-5.49 1.48,-0.89 1.56,-1.03 2.45,-2.41l1.17 -1.78c1.07,-0.98 0.23,-0.29 0.42,-0.16l3.16 -0.12c-0.84,-2.85 -1.83,-4.62 -1.89,-8.08 11.5,-0.58 4.97,2.85 10.83,3.05 0.81,-1.08 0.3,-0.03 0.76,-1.69l1.1 -5.81c-4.09,1.66 0.11,5.31 -6.46,3.26 -6.37,-2 -4.72,-0.63 -9.06,1.18 -6.07,-0.71 0.01,-0.14 -3.95,-1.39 -8.04,-2.52 -2.45,-0.49 -7.8,-12.36l5.47 -0.43c0.25,-7.03 -4.13,-6.17 -4.14,-9.32 -0.01,-1.9 1.31,-1.85 0.42,-4.25 -1.5,-4.02 -8,0.45 -12.06,-8.12 0.94,-0.63 -1.46,-0.94 2.2,-0.44 -0.88,-2.15 -0.61,-2.94 -3.15,-3.82 -1.96,3.23 -0.31,6.88 1.91,8.82 2.77,2.41 5.89,2.08 9.56,3.36 0.05,4.04 -1.87,4.94 0.48,7.56 1.56,1.73 3.22,1.75 3.5,5.08 -6.01,0.55 -3.6,-1.67 -7.54,-1.76 -2.13,-0.04 -1.18,0.1 -1.73,0.32l-0.08 1.01c0.23,1.02 0.05,1.18 1.6,2.36 1.62,1.23 1.7,0.9 3.56,2.67 0.37,6.36 0.3,7.31 4.91,10.5 4.42,3.06 5.18,3.64 5.53,10.45l-8.03 -0.28c-0.11,0.28 -0.17,0.37 -0.2,0.65 -0.04,0.35 -0.32,0.9 -0.39,1.1l-0.86 2.36c-6.59,-2.47 -2.2,-7.78 -7.18,-9.94 -4.3,4.51 1.77,9.4 3.15,13.57 0.59,1.79 0.08,3.56 0.49,6.07 2.04,0.61 4.06,1.35 5.7,1.94zm0 0c1.4,1.62 1.94,1.2 3.69,3.82 1.34,1.99 1.88,3.98 2.73,5.81 8.39,0.64 5.15,-3.12 8.14,-6.33 4.13,-4.45 3.2,3.75 3.95,-10.47 2,-0.63 4.81,-1.55 6.16,-3.37 -0.82,-2.45 1.39,-0.87 -2.22,-2.34 -1.18,-0.48 -2.78,-0.33 -4.35,-0.73 -3.72,-0.95 -2.15,-2.64 -4.75,-4.01l-3.16 0.12c-0.19,-0.13 0.65,-0.82 -0.42,0.16l-1.17 1.78c-0.89,1.38 -0.97,1.52 -2.45,2.41 -4.27,2.57 -2.3,-0.62 -3.99,5.49 -4.55,0.6 -1.18,-1.02 -4.54,-1.22 -1.64,-0.1 -2.08,0.27 -2.3,2.62 -0.54,5.53 2.99,1.67 4.68,6.26zm17.6 65.55l-0.13 -12.15c11.88,-0.02 16.08,0.13 15.96,6.46 -0.11,6.34 -4.84,5.79 -15.83,5.69zm-0.17 -32.35c6.08,-0.33 14.1,-0.92 13.95,5.8 -0.15,6.6 -7.44,5.87 -14.01,5.62l0.06 -11.42zm21.3 14.43c2.5,-1.03 5.09,-4.23 5.56,-10.08 -0.82,-10.69 -6.7,-15.3 -17.35,-15.33l-22.88 0 0 53.01c26.51,0 29.94,0.71 36.61,-3.04 6.24,-3.66 6.43,-15.51 3.13,-19.9 -3.3,-4.38 -4.74,-4.44 -5.07,-4.66zm67.8 27.76l55.46 -0.16 -0.04 -11.79 -5.57 0.01 -0.1 -20.17c-0.02,-4.27 -0.25,-8.16 -1.72,-10.84 -2.37,-4.3 -5.88,-10.1 -19.59,-10.23 -13.71,-0.13 -20.49,3.49 -21.53,20.42l0.15 21.1 -7.1 -0.05 0.04 11.71zm208.11 -26.25c0.03,21.77 -27.65,23.47 -27.66,0.56 -0.01,-22.94 27.62,-23.2 27.66,-0.56zm9.77 0.59c0.1,-17.12 -6.33,-27.34 -23.25,-27.4 -18.18,-0.06 -26.06,14.1 -25.51,27.37 0.58,14.05 7.18,25.99 24.73,25.83 18.5,-0.17 23.96,-14.05 24.03,-25.8zm-151.92 15.1l0.03 10.4c17.63,0.01 43.62,1.23 43.92,-25.44 0.11,-28.21 -18.77,-28.47 -44.7,-27.51l0.04 10.57c13.13,0.11 29.85,-3.17 31.02,10.21l-30.48 0.36 0.13 11.14 30.28 -0.22c-1.7,12.09 -20.81,10.42 -30.24,10.49zm-103.49 -23.01l0.06 -19.6 -13.46 -0.02 -0.02 20.4c0.67,14.8 20.03,19.25 31.57,15.09 -3.39,9.43 -7.12,5.91 -30.73,6.44l0 11.1c15.07,0.29 18.62,0.34 23.66,0.19 6.71,-0.2 11.29,-0.77 14.92,-6.1 3.19,-4.69 4.99,-7.96 5.43,-21.69l0.2 -25.48 -13.03 0.07 -0.13 19.78c-2.86,7.3 -17.01,6.81 -18.47,-0.18zm206.5 33.46l-21.11 -27.35 18.78 -25.53 -14.62 0.19 -18.64 22.27 0.02 -22.64 -13.31 0 0.49 53.02 12.85 0.03 0.13 -14.69 4.53 -4.32 14.94 18.91 15.94 0.11zm-131.07 -11.71l-18.73 -0.1 0.1 -20c-0.05,-1.65 0.01,-10.73 9.29,-10.48 9.29,0.26 9.16,8.65 9.05,10.69l0.29 19.89z"/>
 </g>
</svg>
