<?xml version="1.0" encoding="iso-8859-1"?>
<!-- Generator: Adobe Illustrator 19.0.0, SVG Export Plug-In . SVG Version: 6.00 Build 0)  -->
<svg version="1.1" id="Layer_1" xmlns="http://www.w3.org/2000/svg" xmlns:xlink="http://www.w3.org/1999/xlink" x="0px" y="0px"
	 viewBox="0 0 288.412 288.412" style="enable-background:new 0 0 288.412 288.412;" xml:space="preserve">
<g>
	<g>
		<g>
			<path d="M228.259,0H60.153c-9.649,0-17.5,7.851-17.5,17.5v253.412c0,9.649,7.851,17.5,17.5,17.5h168.106
				c9.649,0,17.5-7.851,17.5-17.5V17.5C245.759,7.851,237.908,0,228.259,0z M230.759,270.912c0,1.379-1.121,2.5-2.5,2.5H60.153
				c-1.378,0-2.5-1.121-2.5-2.5V17.5c0-1.379,1.122-2.5,2.5-2.5h168.106c1.379,0,2.5,1.121,2.5,2.5V270.912z"/>
			<path d="M208.259,30H80.153c-4.142,0-7.5,3.357-7.5,7.5v54.706c0,4.143,3.358,7.5,7.5,7.5h128.106c4.143,0,7.5-3.357,7.5-7.5
				V37.5C215.759,33.357,212.402,30,208.259,30z M200.759,84.706H87.653V45h113.106V84.706z"/>
			<path d="M109.299,115.975H80.153c-4.142,0-7.5,3.357-7.5,7.5v29.145c0,4.143,3.358,7.5,7.5,7.5h29.146c4.142,0,7.5-3.357,7.5-7.5
				v-29.145C116.799,119.332,113.441,115.975,109.299,115.975z M101.799,145.12H87.653v-14.145h14.146V145.12z"/>
			<path d="M158.779,115.975h-29.146c-4.142,0-7.5,3.357-7.5,7.5v29.145c0,4.143,3.358,7.5,7.5,7.5h29.146
				c4.143,0,7.5-3.357,7.5-7.5v-29.145C166.279,119.332,162.921,115.975,158.779,115.975z M151.279,145.12h-14.146v-14.145h14.146
				V145.12z"/>
			<path d="M208.259,115.975h-29.146c-4.143,0-7.5,3.357-7.5,7.5v29.145c0,4.143,3.357,7.5,7.5,7.5h29.146
				c4.143,0,7.5-3.357,7.5-7.5v-29.145C215.759,119.332,212.402,115.975,208.259,115.975z M200.759,145.12h-14.146v-14.145h14.146
				V145.12z"/>
			<path d="M109.299,165.12H80.153c-4.142,0-7.5,3.357-7.5,7.5v29.146c0,4.143,3.358,7.5,7.5,7.5h29.146c4.142,0,7.5-3.357,7.5-7.5
				V172.62C116.799,168.478,113.441,165.12,109.299,165.12z M101.799,194.267H87.653V180.12h14.146V194.267z"/>
			<path d="M158.779,165.12h-29.146c-4.142,0-7.5,3.357-7.5,7.5v29.146c0,4.143,3.358,7.5,7.5,7.5h29.146c4.143,0,7.5-3.357,7.5-7.5
				V172.62C166.279,168.478,162.921,165.12,158.779,165.12z M151.279,194.267h-14.146V180.12h14.146V194.267z"/>
			<path d="M109.299,214.267H80.153c-4.142,0-7.5,3.357-7.5,7.5v29.146c0,4.143,3.358,7.5,7.5,7.5h29.146c4.142,0,7.5-3.357,7.5-7.5
				v-29.146C116.799,217.624,113.441,214.267,109.299,214.267z M101.799,243.412H87.653v-14.146h14.146V243.412z"/>
			<path d="M158.779,214.267h-29.146c-4.142,0-7.5,3.357-7.5,7.5v29.146c0,4.143,3.358,7.5,7.5,7.5h29.146
				c4.143,0,7.5-3.357,7.5-7.5v-29.146C166.279,217.624,162.921,214.267,158.779,214.267z M151.279,243.412h-14.146v-14.146h14.146
				V243.412z"/>
			<path d="M208.259,165.12h-29.146c-4.143,0-7.5,3.357-7.5,7.5v78.292c0,4.143,3.357,7.5,7.5,7.5h29.146c4.143,0,7.5-3.357,7.5-7.5
				V172.62C215.759,168.478,212.402,165.12,208.259,165.12z M200.759,243.412h-14.146V180.12h14.146V243.412z"/>
		</g>
	</g>
</g>
<g>
</g>
<g>
</g>
<g>
</g>
<g>
</g>
<g>
</g>
<g>
</g>
<g>
</g>
<g>
</g>
<g>
</g>
<g>
</g>
<g>
</g>
<g>
</g>
<g>
</g>
<g>
</g>
<g>
</g>
</svg>
