<?xml version="1.0" encoding="iso-8859-1"?>
<!-- Generator: Adobe Illustrator 19.0.0, SVG Export Plug-In . SVG Version: 6.00 Build 0)  -->
<svg version="1.1" id="Layer_1" xmlns="http://www.w3.org/2000/svg" xmlns:xlink="http://www.w3.org/1999/xlink" x="0px" y="0px"
	 viewBox="0 0 512 512" style="enable-background:new 0 0 512 512;" xml:space="preserve">
<g>
	<g>
		<circle cx="256.004" cy="246.315" r="13.541"/>
	</g>
</g>
<g>
	<g>
		<circle cx="214.796" cy="263.373" r="13.54"/>
	</g>
</g>
<g>
	<g>
		<circle cx="197.738" cy="304.581" r="13.541"/>
	</g>
</g>
<g>
	<g>
		<circle cx="314.27" cy="304.581" r="13.541"/>
	</g>
</g>
<g>
	<g>
		<circle cx="297.201" cy="263.373" r="13.54"/>
	</g>
</g>
<g>
	<g>
		<path d="M481.603,322.594c0.709-1.712,1.149-3.556,1.25-5.478c0.363-6.879-3.547-13.271-9.838-16.079l-14.419-6.437l13.672-7.898
			c5.965-3.445,9.193-10.208,8.117-17.013c-1.075-6.804-6.229-12.244-12.966-13.683l-15.442-3.3l11.732-10.567
			c5.117-4.61,6.868-11.897,4.403-18.329c-2.466-6.433-8.639-10.682-15.526-10.689l-15.791-0.017l9.278-12.776
			c4.048-5.574,4.245-13.065,0.495-18.844c-3.749-5.778-10.665-8.649-17.411-7.226l-15.448,3.267l6.419-14.427
			c2.8-6.294,1.436-13.663-3.433-18.535c-4.87-4.874-12.236-6.243-18.533-3.447l-14.431,6.407l3.281-15.445
			c1.431-6.738-1.436-13.663-7.212-17.416c-5.776-3.753-13.268-3.564-18.844,0.482l-12.784,9.268l-0.003-15.791
			c-0.001-6.889-4.245-13.064-10.675-15.535c-6.426-2.474-13.717-0.729-18.332,4.387l-10.578,11.723l-3.286-15.444
			c-1.434-6.738-6.869-11.897-13.672-12.977c-6.809-1.081-13.57,2.142-17.019,8.104l-7.909,13.665l-6.425-14.423
			c-2.802-6.293-9.222-10.22-16.07-9.851c-6.88,0.357-12.828,4.915-14.963,11.465l-4.895,15.013l-9.284-12.774
			c-4.051-5.572-11.122-8.074-17.768-6.294c-6.654,1.78-11.527,7.475-12.252,14.325l-1.667,15.702l-11.735-10.563
			c-5.121-4.607-12.551-5.585-18.69-2.463c-6.138,3.125-9.719,9.709-9.005,16.56l1.635,15.703l-13.675-7.892
			c-5.968-3.443-13.438-2.854-18.793,1.477c-5.355,4.333-7.489,11.517-5.367,18.07l4.864,15.023l-15.018-4.878
			c-6.55-2.129-13.737-0.001-18.075,5.352c-4.337,5.35-4.93,12.822-1.493,18.79l7.882,13.684l-15.703-1.647
			c-6.862-0.723-13.437,2.857-16.568,8.993c-3.13,6.136-2.156,13.568,2.447,18.691l10.554,11.745l-15.704,1.654
			c-6.85,0.72-12.55,5.587-14.335,12.24c-1.785,6.652,0.711,13.717,6.279,17.773l12.765,9.294l-15.016,4.882
			c-6.55,2.13-11.114,8.074-11.478,14.954c-0.363,6.879,3.548,13.271,9.838,16.079l14.42,6.437l-11.931,6.891H31.82
			C14.275,322.559,0,336.834,0,354.381v47.549c0,17.547,14.275,31.822,31.821,31.822h448.358c17.546,0,31.821-14.275,31.821-31.822
			v-47.549C512,337.311,498.49,323.342,481.603,322.594z M96.962,294.892c5.95-1.933,10.313-7.042,11.295-13.22
			c0.981-6.178-1.585-12.387-6.642-16.069l-4.143-3.017l5.097-0.537c6.222-0.655,11.551-4.742,13.796-10.583
			c2.244-5.84,1.024-12.446-3.157-17.098l-3.424-3.811l5.094,0.534c6.232,0.647,12.286-2.239,15.696-7.484
			c3.408-5.246,3.589-11.959,0.467-17.381l-2.558-4.44l4.874,1.583c5.949,1.93,12.482,0.364,16.908-4.056
			c4.425-4.422,5.997-10.953,4.071-16.905l-1.579-4.877l4.438,2.563c5.419,3.125,12.135,2.952,17.382-0.454
			c5.248-3.405,8.145-9.466,7.497-15.688l-0.531-5.095l3.809,3.427c4.65,4.185,11.258,5.407,17.096,3.17
			c5.842-2.241,9.934-7.566,10.594-13.787l0.54-5.095l3.013,4.145c3.677,5.061,9.873,7.63,16.065,6.656
			c6.18-0.977,11.29-5.335,13.229-11.284l1.589-4.872l2.084,4.68c2.546,5.715,8.081,9.52,14.329,9.851
			c6.26,0.335,12.155-2.871,15.286-8.287l2.567-4.434l1.067,5.012c1.303,6.121,5.925,10.993,11.968,12.614
			c6.042,1.625,12.484-0.281,16.674-4.927l3.433-3.804l0.001,5.124c0.001,6.256,3.51,11.984,9.084,14.826
			c5.574,2.841,12.27,2.321,17.336-1.353l4.147-3.007l-1.064,5.012c-1.3,6.121,0.942,12.452,5.803,16.392
			c4.861,3.94,11.518,4.82,17.238,2.282l4.682-2.079l-2.083,4.681c-2.544,5.716-1.668,12.376,2.267,17.24
			c3.935,4.862,10.261,7.102,16.388,5.815l5.014-1.061l-3.011,4.145c-3.677,5.063-4.204,11.759-1.366,17.334
			c2.839,5.575,8.563,9.088,14.82,9.095l5.122,0.006l-3.807,3.428c-4.648,4.187-6.557,10.628-4.94,16.671
			c1.616,6.044,6.486,10.671,12.603,11.978l5.012,1.071l-4.436,2.563c-5.418,3.13-8.624,9.033-8.299,15.28
			c0.324,6.248,4.125,11.786,9.838,14.338l4.679,2.089l-4.873,1.585c-3.854,1.253-7.043,3.838-9.077,7.183h-43.871
			c0.939-5.732,1.441-11.547,1.441-17.424c0-59.293-48.238-107.53-107.53-107.53s-107.531,48.238-107.531,107.53
			c0,5.879,0.502,11.692,1.441,17.424h-45.792c1.761-2.838,2.665-6.194,2.485-9.656c-0.324-6.248-4.125-11.786-9.838-14.338
			l-4.679-2.089L96.962,294.892z M256.001,278.745c-14.574,0-26.389,11.815-26.389,26.389c0,6.68,2.487,12.775,6.579,17.424h-52.358
			c-1.375-5.68-2.068-11.509-2.068-17.424c0-40.934,33.303-74.235,74.236-74.235s74.235,33.301,74.235,74.235
			c0,5.917-0.693,11.744-2.065,17.424h-52.358c4.092-4.649,6.579-10.744,6.579-17.424
			C282.391,290.56,270.576,278.745,256.001,278.745z M478.705,400.457H33.295v-44.603c10.279,0,437.901,0,445.41,0V400.457z"/>
	</g>
</g>
<g>
</g>
<g>
</g>
<g>
</g>
<g>
</g>
<g>
</g>
<g>
</g>
<g>
</g>
<g>
</g>
<g>
</g>
<g>
</g>
<g>
</g>
<g>
</g>
<g>
</g>
<g>
</g>
<g>
</g>
</svg>
