<?xml version="1.0" encoding="iso-8859-1"?>
<!-- Generator: Adobe Illustrator 18.0.0, SVG Export Plug-In . SVG Version: 6.00 Build 0)  -->
<!DOCTYPE svg PUBLIC "-//W3C//DTD SVG 1.1//EN" "http://www.w3.org/Graphics/SVG/1.1/DTD/svg11.dtd">
<svg version="1.1" id="Capa_1" xmlns="http://www.w3.org/2000/svg" xmlns:xlink="http://www.w3.org/1999/xlink" x="0px" y="0px"
	 viewBox="0 0 330 330" style="enable-background:new 0 0 330 330;" xml:space="preserve">
<g>
	<path d="M295.606,104.391l-100-99.997C192.793,1.58,188.978,0,185,0H45c-8.284,0-15,6.716-15,15v300c0,8.284,6.716,15,15,15h240
		c8.284,0,15-6.716,15-15V114.997C300,111.019,298.419,107.203,295.606,104.391z M200,51.213l48.787,48.784H200V51.213z M60,300V30
		h110v84.997c0,8.284,6.716,15,15,15h85V300H60z"/>
	<path d="M214,192.999l-40-30c-5.333-4-12.667-4-18,0l-40,30c-3.777,2.833-6,7.278-6,12v50c0,8.284,6.716,15,15,15h80
		c8.284,0,15-6.716,15-15v-50C220,200.277,217.777,195.832,214,192.999z M190,239.999h-50v-27.5l25-18.75l25,18.75V239.999z"/>
</g>
<g>
</g>
<g>
</g>
<g>
</g>
<g>
</g>
<g>
</g>
<g>
</g>
<g>
</g>
<g>
</g>
<g>
</g>
<g>
</g>
<g>
</g>
<g>
</g>
<g>
</g>
<g>
</g>
<g>
</g>
</svg>
