<?xml version="1.0" encoding="iso-8859-1"?>
<!-- Generator: Adobe Illustrator 17.1.0, SVG Export Plug-In . SVG Version: 6.00 Build 0)  -->
<!DOCTYPE svg PUBLIC "-//W3C//DTD SVG 1.1//EN" "http://www.w3.org/Graphics/SVG/1.1/DTD/svg11.dtd">
<svg version="1.1" id="Capa_1" xmlns="http://www.w3.org/2000/svg" xmlns:xlink="http://www.w3.org/1999/xlink" x="0px" y="0px"
	 viewBox="0 0 417.978 417.978" style="enable-background:new 0 0 417.978 417.978;" xml:space="preserve">
<g>
	<path d="M178.489,309.18h-20.926c-8.271,0-15,6.312-15,14.069c0,2.206-2.29,4.069-5,4.069h-8.546c-2.71,0-5-1.863-5-4.069
		c0-7.758-6.729-14.069-15-14.069H88.091c-8.271,0-15,6.729-15,15v77.781c0,8.271,6.729,15,15,15h90.398c8.271,0,15-6.729,15-15
		V324.18C193.489,315.909,186.76,309.18,178.489,309.18z M141.674,371.377v24.64h-16.769v-24.639h-9.152l17.539-19.777
		l17.537,19.776H141.674z"/>
	<path d="M329.887,309.18h-20.926c-8.271,0-15,6.312-15,14.069c0,2.206-2.29,4.069-5,4.069h-8.546c-2.71,0-5-1.863-5-4.069
		c0-7.758-6.729-14.069-15-14.069h-20.926c-8.271,0-15,6.729-15,15v77.781c0,8.271,6.729,15,15,15h90.398c8.271,0,15-6.729,15-15
		V324.18C344.887,315.909,338.158,309.18,329.887,309.18z M293.072,371.377v24.64h-16.769v-24.639h-9.152l17.539-19.777
		l17.538,19.776H293.072z"/>
	<path d="M254.188,286.72c8.271,0,15-6.729,15-15v-77.781c0-8.271-6.729-15-15-15h-20.926c-8.271,0-15,6.312-15,14.069
		c0,2.206-2.29,4.069-5,4.069h-8.546c-2.71,0-5-1.863-5-4.069c0-7.758-6.729-14.069-15-14.069H163.79c-8.271,0-15,6.729-15,15
		v77.781c0,8.271,6.729,15,15,15H254.188z M208.99,221.36l17.537,19.776h-9.154v24.64h-16.769v-24.639h-9.152L208.99,221.36z"/>
	<path d="M393.636,101.769L227.783,4.777c-10.889-6.369-26.697-6.369-37.588,0L24.342,101.769
		c-10.807,6.319-18.65,19.992-18.65,32.511v268.698c0,8.284,6.716,15,15,15s15-6.716,15-15V155.705h346.595v247.273
		c0,8.284,6.716,15,15,15s15-6.716,15-15V134.28C412.286,121.761,404.443,108.088,393.636,101.769z"/>
</g>
<g>
</g>
<g>
</g>
<g>
</g>
<g>
</g>
<g>
</g>
<g>
</g>
<g>
</g>
<g>
</g>
<g>
</g>
<g>
</g>
<g>
</g>
<g>
</g>
<g>
</g>
<g>
</g>
<g>
</g>
</svg>
