<?xml version="1.0" encoding="UTF-8"?>
<!DOCTYPE svg PUBLIC "-//W3C//DTD SVG 1.1//EN" "http://www.w3.org/Graphics/SVG/1.1/DTD/svg11.dtd">
<!-- Creator: CorelDRAW 2020 (64-Bit) -->
<svg xmlns="http://www.w3.org/2000/svg" xml:space="preserve" width="25.3998mm" height="25.3998mm" version="1.1" style="shape-rendering:geometricPrecision; text-rendering:geometricPrecision; image-rendering:optimizeQuality; fill-rule:evenodd; clip-rule:evenodd"
viewBox="0 0 2539.98 2539.98"
 xmlns:xlink="http://www.w3.org/1999/xlink"
 xmlns:xodm="http://www.corel.com/coreldraw/odm/2003">
 <defs>
  <style type="text/css">
   <![CDATA[
    .fil0 {fill:#922635}
   ]]>
  </style>
 </defs>
 <g id="Слой_x0020_1">
  <metadata id="CorelCorpID_0Corel-Layer"/>
  <path class="fil0" d="M2139.17 1342.23l26.83 0 0 80.5 -26.83 0 0 -80.5zm-8.93 0l0 80.5 -26.84 0 0 -80.5 26.84 0zm0 -80.49l0 62.61 -26.84 0 26.84 -62.61zm78.84 -242.27c4.07,5.11 4.69,4.77 9.93,16.59 3.6,8.13 4.22,10.27 7.23,19.82 4.65,14.75 7.62,28.61 11.49,43.15l63.86 245.57 -53.74 3.07c-21.4,-56.05 -32,-111.62 -47.28,-167.74 -22.94,-84.22 -40.94,-91.77 8.51,-160.46zm-1966.72 668.91l-113.27 -0.93c9.7,-27.91 131.18,-184.52 157.77,-220.06l500.18 -677.97c27.44,19.56 38.82,37.17 57.59,69.17 -8.55,32.43 -120.65,177.11 -147.96,213.87 -53.99,72.67 -100.75,134.41 -151.9,205.59 -101.02,140.61 -201.93,278.21 -302.41,410.33zm563.45 -981.25c44.24,16.91 113.26,59.11 158.54,81.92l477.42 246.44c43.65,24.26 122.55,73.98 174.72,64.95 62.88,-10.88 134.15,-32.31 197.89,-46.56 109.42,-24.46 289.86,-82.53 394.42,-89.54 -18.26,41.24 -107.34,219.7 -144.68,229.43 -54.13,14.12 -284.26,48.49 -336.35,47.22l-27.53 23.46c14.52,7.21 195.17,189.75 219.7,214.21 158.05,157.67 133.45,143.67 307.04,139.24 17.5,-27.76 -0.71,-15.85 17.47,-41.73 33.19,35.58 93.95,72.04 120.11,113.22 -209.73,-1.1 -419.73,-0.32 -629.49,-0.29 -187.16,0.03 -122.52,12.88 -216.3,-95.46 -165.87,-191.59 -338.48,-426.14 -498.45,-610.55l-215.51 -260.41c-21.46,-19.93 -13.99,27.07 -16.13,-17.54 35.17,-23.61 11.75,-2.33 17.13,1.99zm-805.81 509.2c0,233.33 20.6,399.51 119.15,596.35 43.67,87.24 112.54,207.61 178.24,277.88 28.04,29.99 42.62,51.9 71.38,80.66l166.46 137.63c170.33,125.75 446.79,231.14 681.11,231.14 230.62,0 402,-21.83 596.35,-119.15 71.27,-35.68 131.55,-67.31 192.08,-111.99 28.08,-20.72 60.62,-42.7 85.8,-66.25l152.04 -152.04c65.7,-70.27 134.57,-190.64 178.25,-277.88 160.31,-320.21 160.31,-765.17 0,-1085.38 -106.7,-213.12 -170.05,-280.09 -330.29,-429.92 -173.24,-162 -511.58,-297.39 -766.91,-297.39 -230.62,0 -402,21.83 -596.35,119.14 -282.59,141.49 -465.92,324.05 -608.16,608.17 -59.56,118.96 -119.15,314.76 -119.15,489.03zm2139.17 45.41l26.83 62.61 -26.83 0 0 -62.61zm-1261.06 339.86l80.49 0 0 -268.31 -80.49 0 0 268.31zm-152.04 0l0 -268.31 -80.5 0 0 268.31 80.5 0zm250.43 0l80.49 0 0 -268.31 -80.49 0 0 268.31zm-232.55 0l80.5 0 0 -268.31 -80.5 0 0 268.31zm214.65 -295.15l0 -134.15 -80.49 -125.21 0 259.36 80.49 0zm-214.26 -142.59l-0.39 142.59 80.5 0 0 -268.31 -80.11 125.72zm-18.27 17.39l-80.5 125.2 80.5 0 0 -125.2zm250.43 125.2l80.49 0 -80.49 -125.2 0 125.2z"/>
 </g>
</svg>
